<?xml version="1.0" standalone="no"?>
<svg xmlns:xlink="http://www.w3.org/1999/xlink" id="wave" style="transform:rotate(0deg); transition: 0.3s" viewBox="0 0 1440 220" version="1.1" xmlns="http://www.w3.org/2000/svg"><defs><linearGradient id="sw-gradient-0" x1="0" x2="0" y1="1" y2="0"><stop stop-color="rgba(244, 238, 252, 1)" offset="0%"/><stop stop-color="rgba(244, 238, 252, 1)" offset="100%"/></linearGradient></defs><path style="transform:translate(0, 0px); opacity:1" fill="url(#sw-gradient-0)" d="M0,110L80,91.7C160,73,320,37,480,44C640,51,800,103,960,106.3C1120,110,1280,66,1440,55C1600,44,1760,66,1920,73.3C2080,81,2240,73,2400,80.7C2560,88,2720,110,2880,117.3C3040,125,3200,117,3360,124.7C3520,132,3680,154,3840,135.7C4000,117,4160,59,4320,58.7C4480,59,4640,117,4800,135.7C4960,154,5120,132,5280,102.7C5440,73,5600,37,5760,51.3C5920,66,6080,132,6240,135.7C6400,139,6560,81,6720,51.3C6880,22,7040,22,7200,36.7C7360,51,7520,81,7680,106.3C7840,132,8000,154,8160,157.7C8320,161,8480,147,8640,124.7C8800,103,8960,73,9120,80.7C9280,88,9440,132,9600,150.3C9760,169,9920,161,10080,161.3C10240,161,10400,169,10560,150.3C10720,132,10880,88,11040,62.3C11200,37,11360,29,11440,25.7L11520,22L11520,220L11440,220C11360,220,11200,220,11040,220C10880,220,10720,220,10560,220C10400,220,10240,220,10080,220C9920,220,9760,220,9600,220C9440,220,9280,220,9120,220C8960,220,8800,220,8640,220C8480,220,8320,220,8160,220C8000,220,7840,220,7680,220C7520,220,7360,220,7200,220C7040,220,6880,220,6720,220C6560,220,6400,220,6240,220C6080,220,5920,220,5760,220C5600,220,5440,220,5280,220C5120,220,4960,220,4800,220C4640,220,4480,220,4320,220C4160,220,4000,220,3840,220C3680,220,3520,220,3360,220C3200,220,3040,220,2880,220C2720,220,2560,220,2400,220C2240,220,2080,220,1920,220C1760,220,1600,220,1440,220C1280,220,1120,220,960,220C800,220,640,220,480,220C320,220,160,220,80,220L0,220Z"/></svg>